<?xml version="1.0" encoding="utf-8"?>
<!-- Generator: Adobe Illustrator 24.1.0, SVG Export Plug-In . SVG Version: 6.00 Build 0)  -->
<svg version="1.1" id="Layer_1" xmlns="http://www.w3.org/2000/svg" xmlns:xlink="http://www.w3.org/1999/xlink" x="0px" y="0px"
	 viewBox="0 0 367.3 149.6" style="enable-background:new 0 0 367.3 149.6;" xml:space="preserve">
<style type="text/css">
	.st0{fill:#1F4D77;}
	.st1{fill:#00AEEF;}
</style>
<path class="st0" d="M345.7,57.6c-3.2,0-5.7-2.6-5.7-5.8s2.6-5.7,5.8-5.7c3.2,0,5.7,2.6,5.7,5.7c0.1,3.1-2.3,5.6-5.4,5.8
	C345.9,57.6,345.8,57.6,345.7,57.6z M345.7,47.5c-2.3,0-4.1,1.9-4.1,4.2c0,0.1,0,0.2,0,0.2c-0.2,2.3,1.6,4.2,3.8,4.4
	c0.1,0,0.2,0,0.2,0l0,0l0,0c2.4-0.2,4.3-2.3,4.1-4.7C349.6,49.4,347.9,47.6,345.7,47.5L345.7,47.5z M344.7,55h-1.3v-6.2h2.3
	c1.6,0,2.5,0.5,2.5,1.9c0.1,0.8-0.5,1.5-1.3,1.6c-0.1,0-0.1,0-0.2,0l1.6,2.7h-1.6l-1.4-2.6h-0.6L344.7,55z M345.9,51.3
	c0.6,0,0.9-0.1,0.9-0.8s-0.7-0.7-1.2-0.7h-0.9v1.5H345.9z"/>
<path class="st0" d="M155.7,69.2V47.5h12.5v58.3h-12.5v-5.5c-1.3,3.7-6.2,6.3-12.6,6.3c-5.7,0.1-11.1-2.2-15-6.3
	c-3.9-4.2-6.1-9.8-5.9-15.6c-0.1-5.7,2-11.3,5.9-15.5c3.9-4.2,9.3-6.5,15-6.4C149.5,62.9,154.4,65.5,155.7,69.2z M153.2,92.3
	c2.1-1.9,3.3-4.7,3.3-7.5c0-2.8-1.1-5.6-3.3-7.4c-2.1-2.1-4.9-3.2-7.8-3.1c-2.9-0.1-5.6,1-7.6,3.1c-2,1.9-3.2,4.6-3.1,7.4
	c-0.1,2.8,1.1,5.6,3.1,7.5c2,2,4.8,3.1,7.6,3C148.3,95.4,151.1,94.3,153.2,92.3L153.2,92.3z"/>
<path class="st0" d="M208.1,69.2v-5.5h12.5v42.2h-12.5v-5.5c-1.3,3.7-6.2,6.3-12.6,6.3c-5.7,0.1-11.1-2.2-15-6.3
	c-3.9-4.2-6.1-9.8-5.9-15.6c-0.1-5.7,2-11.3,5.9-15.5c3.9-4.2,9.3-6.5,15-6.4C201.9,62.9,206.8,65.5,208.1,69.2z M205.5,92.3
	c2.1-1.9,3.3-4.7,3.3-7.5c0-2.8-1.1-5.6-3.3-7.4c-2.1-2.1-4.9-3.2-7.8-3.1c-2.9-0.1-5.6,1-7.6,3.1c-2,1.9-3.2,4.6-3.1,7.4
	c-0.1,2.8,1.1,5.6,3.1,7.5c2,2,4.8,3.1,7.6,3C200.6,95.4,203.4,94.3,205.5,92.3L205.5,92.3z"/>
<path class="st0" d="M263.5,66.2v12.1c-3.3-3.1-7.6-4.7-12.1-4.6c-3.2-0.1-6.3,1-8.6,3.1c-2.2,2-3.5,5-3.4,8c0,6.4,5,11,12,11
	c4.5,0.1,8.8-1.5,12.1-4.5v12c-3.3,2.6-7.7,3.8-13.1,3.8c-6.8,0-12.4-2.1-16.8-6.3c-4.4-4.1-6.8-10-6.6-16c-0.2-6,2.2-11.9,6.6-16
	c4.4-4.3,10.1-6.4,16.8-6.4C255.7,62.3,260.1,63.6,263.5,66.2z"/>
<path class="st0" d="M266.9,105.8l16-22.2l-14.5-20H282l7.9,11.1l7.9-11.1h13.6l-14.5,20l16,22.2h-13.5l-9.5-13.1l-9.5,13.1H266.9z"
	/>
<path class="st0" d="M323.4,45.9c3.9,0,7,3.2,7,7.1c0,3.9-3.2,7-7.1,7c-3.9,0-7-3.2-7-7C316.2,49.1,319.4,45.9,323.4,45.9
	C323.3,45.9,323.3,45.9,323.4,45.9z M317.2,105.8V63.7h12.5v42.2H317.2z"/>
<path class="st1" d="M48.5,94.7l-28-16.3v-3.3c0-5.1,2.7-9.8,7.1-12.4l26.5-15.3c3.4-1.9,7.4-2.4,11.1-1.4v33.3l-2.6-1.5
	c-1.3-0.7-2.9-0.7-4.2,0l-7.8,4.5c-1.3,0.8-2.1,2.2-2.1,3.7V94.7z"/>
<path class="st1" d="M20.5,86.7L84.7,124l-16.3,9.4c-4.4,2.6-9.9,2.6-14.3,0l-26.5-15.3c-4.4-2.6-7.1-7.3-7.1-12.4L20.5,86.7z"/>
<path class="st1" d="M102.1,24.4v81.3c0,5.1-2.7,9.8-7.1,12.4l-3.2,1.8l-29-16.9l7.6-4.4c1.3-0.8,2.1-2.2,2.1-3.7V24.4
	c0-2.4,1.3-4.5,3.3-5.7l8.2-4.7c2-1.2,4.5-1.2,6.6,0l8.2,4.7C100.9,19.9,102.1,22.1,102.1,24.4z"/>
<path class="st1" d="M273.4,115.1v3.5c-1.4-1.1-3.1-1.7-4.9-1.6c-1.4,0-2.7,0.5-3.6,1.4c-1,0.9-1.5,2.3-1.5,3.6
	c0,1.4,0.5,2.7,1.5,3.6c2,1.8,5,1.9,7.1,0.2v-2.2h-4.2v-3.1h7.5v6.4c-1.6,2.1-4.2,3.3-6.8,3.3c-2.3,0.1-4.5-0.8-6.1-2.3
	c-3.3-3.2-3.3-8.4-0.2-11.7c0.1-0.1,0.1-0.1,0.2-0.2c1.6-1.6,3.9-2.4,6.1-2.4C270.2,113.7,271.9,114.2,273.4,115.1z"/>
<path class="st1" d="M277.5,130.1V114h3.4v16L277.5,130.1z"/>
<path class="st1" d="M293.7,119.9c1.2,1.1,1.9,2.7,1.9,4.3c0,1.7-0.7,3.3-1.9,4.4c-2.6,2.4-6.6,2.4-9.1,0c-1.2-1.1-1.9-2.7-1.9-4.4
	c0-1.6,0.6-3.2,1.9-4.3C287.2,117.5,291.1,117.5,293.7,119.9z M287,126.4c0.6,0.6,1.3,0.9,2.1,0.9c0.8,0,1.6-0.3,2.1-0.9
	c0.6-0.6,0.9-1.4,0.9-2.2c0-0.8-0.3-1.6-0.9-2.1c-0.6-0.6-1.3-0.9-2.1-0.9c-0.8,0-1.6,0.3-2.1,0.9c-0.6,0.6-0.9,1.3-0.9,2.1
	C286.1,125.1,286.4,125.8,287,126.4L287,126.4z"/>
<path class="st1" d="M297.4,130.1V114h3.4v6c0.4-1,1.7-1.7,3.5-1.7c1.6,0,3,0.6,4.1,1.8c1.1,1.1,1.7,2.7,1.7,4.3
	c0,1.6-0.6,3.1-1.7,4.3c-1,1.1-2.5,1.8-4.1,1.7c-1.8,0-3.1-0.7-3.5-1.7v1.5L297.4,130.1z M305.8,126.3c0.6-0.5,0.9-1.3,0.9-2.1
	c0-0.8-0.3-1.5-0.9-2c-0.6-0.6-1.3-0.9-2.1-0.9c-0.8,0-1.6,0.3-2.2,0.9c-0.6,0.5-0.9,1.2-0.9,2c0,0.8,0.3,1.5,0.9,2.1
	c0.6,0.6,1.4,0.9,2.2,0.8C304.4,127.2,305.2,126.9,305.8,126.3L305.8,126.3z"/>
<path class="st1" d="M320.5,120v-1.5h3.4v11.6h-3.4v-1.5c-0.3,1-1.7,1.7-3.5,1.7c-1.6,0-3.1-0.6-4.1-1.7c-1.1-1.2-1.7-2.7-1.6-4.3
	c0-1.6,0.5-3.1,1.6-4.3c1.1-1.1,2.6-1.8,4.1-1.8C318.8,118.3,320.2,119,320.5,120z M319.8,126.3c0.6-0.5,0.9-1.3,0.9-2.1
	c0-0.8-0.3-1.5-0.9-2c-0.6-0.6-1.3-0.9-2.1-0.9c-0.8,0-1.5,0.3-2.1,0.9c-0.6,0.5-0.9,1.2-0.9,2c0,0.8,0.3,1.5,0.9,2.1
	c0.6,0.6,1.3,0.9,2.1,0.8C318.5,127.2,319.3,126.9,319.8,126.3L319.8,126.3z"/>
<path class="st1" d="M326.2,130.1V114h3.4v16L326.2,130.1z"/>
</svg>
